<?xml version="1.0" standalone="no"?><!DOCTYPE svg PUBLIC "-//W3C//DTD SVG 1.1//EN" "http://www.w3.org/Graphics/SVG/1.1/DTD/svg11.dtd"><svg t="1496389001468" class="icon" style="" viewBox="0 0 1024 1024" version="1.1" xmlns="http://www.w3.org/2000/svg" p-id="2677" xmlns:xlink="http://www.w3.org/1999/xlink" width="200" height="200"><defs><style type="text/css"></style></defs><path d="M905.369647 746.593969c-22.125927-9.605775-27.988448-14.340613-27.988448-14.340613s1.103124-14.464433-5.79396-24.068162c-7.108908-9.634428-5.853311-37.184901-5.853311-37.184901s8.095375-2.51324 32.601512-15.731286c24.534789-13.19144 49.015344-24.067138 50.240241-51.708686 1.104147-27.676339-39.678698-55.289234-88.718601-69.687152-48.993854-14.425547-103.859439-26.50977-103.859439-26.50977s-16.324804-13.164834-14.002922-25.186635c2.352581-12.007475 4.683672-22.801309 4.683672-22.801309s83.95511-27.698852 85.225033-85.525885c1.166569-57.55995-54.895261-68.411089-114.362654-88.782046-59.592236-20.484543-82.930781-35.010375-112.121614-56.56018-29.064966-21.554922-47.830355-43.314505-47.830355-43.314505s4.711302-24.107047-1.172709-38.422078c-5.77247-14.402011-19.836791-21.736047-19.836791-21.736047l-1.174756-19.184945c0 0 9.380648-3.492544 5.855358-9.637498-0.38067-0.589424-0.63445-1.147126-0.829901-1.784646 10.703783-7.735172 17.732873-20.584827 17.732873-35.105542 0-23.600511-18.59859-42.852994-41.523719-42.852994-22.965038 0-41.577954 19.25146-41.577954 42.852994 0 11.927657 4.682649 22.687722 12.269441 30.41266-1.186012 2.818185-1.657756 6.2831 1.470491 8.872065 5.716188 4.935406 5.716188 25.281803 5.716188 25.281803s-22.102391 8.481162-23.202445 30.060643c-1.25662 21.674649 1.100054 31.245631 1.100054 31.245631s-57.245795 72.143087-129.535215 98.509594c-72.393797 26.523073-122.596176 32.587186-138.844232 73.379241-16.381086 40.84015 18.603707 66.226331 33.791617 75.81164 15.249309 9.570983 45.470611 30.03199 45.470611 30.03199l-2.317789 34.942837c0 0-12.740162 9.495258-24.458041 14.31196-11.646248 4.787026-120.222105 27.64257-155.236574 57.735959-34.933627 30.146601-18.518772 58.58735 1.166569 72.16253 19.745716 13.563924 65.316611 34.914184 67.75822 39.654138 2.269693 4.897543-2.441609 40.881083-2.441609 40.881083s-64.080457 25.216311-102.58747 39.70428c-38.531572 14.431687-59.520605 25.214265-59.520605 52.757574 0 27.777647 40.816614 38.547944 55.998385 42.259476 15.144932 3.549849 27.980261 3.549849 27.980261 3.549849l0.633427 123.910101 32.601512 0 2.007727-130.108267c0 0 145.755642-95.520517 400.467811-90.705861 231.423767 4.366448 384.143007 90.705861 384.143007 90.705861l0 130.108267 28.52773 0L938.020278 859.617116c0 0 81.72635-8.317433 82.878592-46.832631C1022.04702 774.235516 927.577438 756.37473 905.369647 746.593969zM576.055386 402.12045c74.169233 8.109702 123.882472 30.964222 145.367809 42.762943l0 37.032428c-22.199605-8.448416-73.548086-25.358551-145.367809-32.425504L576.055386 402.12045zM489.834676 61.302181c0-9.556657 7.590885-17.439184 17.049305-17.439184 9.217942 0 16.906042 7.882528 16.906042 17.439184 0 9.689686-7.688099 17.500583-16.906042 17.500583C497.426585 78.802764 489.834676 70.992891 489.834676 61.302181zM301.430702 451.712939c22.378683-14.230096 79.605036-43.843554 174.511569-51.115168l0 46.521546c-80.461543 5.726421-149.139715 31.583323-174.511569 42.292222L301.430702 451.712939zM845.635171 710.185758c-35.803437-16.768919-162.118308-69.14787-340.556303-68.107167-148.773372 0.903579-281.3212 51.623751-314.218448 65.178465l0-46.746674c30.03199-15.871479 148.279115-69.372997 365.556697-65.375963 157.440775 2.936889 257.811764 48.490388 289.218054 65.045435L845.635171 710.185758zM386.309858 999.326041l56.393381 0L442.703239 858.343099l-56.393381 0L386.309858 999.326041zM470.902488 999.326041l84.593654 0L555.496142 858.343099l-84.593654 0L470.902488 999.326041zM583.693344 999.326041l56.393381 0L640.086725 858.343099l-56.393381 0L583.693344 999.326041z" p-id="2678"></path></svg>