<?xml version="1.0" standalone="no"?><!DOCTYPE svg PUBLIC "-//W3C//DTD SVG 1.1//EN" "http://www.w3.org/Graphics/SVG/1.1/DTD/svg11.dtd"><svg t="1496386360038" class="icon" style="" viewBox="0 0 1024 1024" version="1.1" xmlns="http://www.w3.org/2000/svg" p-id="2186" xmlns:xlink="http://www.w3.org/1999/xlink" width="200" height="200"><defs><style type="text/css"></style></defs><path d="M519.972732 147.170856 512.003571 11.673684l-7.971202 135.498192c2.607755-0.360148 5.265503-0.560116 7.971202-0.560116C514.70825 146.610739 517.367018 146.811728 519.972732 147.170856zM526.632915 260.402123c-4.672738 1.218177-9.575033 1.871136-14.629344 1.871136-5.056352 0-9.958646-0.652959-14.632405-1.871136l-4.646212 78.977442 19.278617 0 19.274536 0L526.632915 260.402123zM627.662009 782.751024c0-57.617518-42.133205-105.385555-97.261316-114.200503L530.400693 491.367013c33.694729-8.252791 58.708163-38.639874 58.708163-74.879103 0-42.586195-34.527252-77.109366-77.105285-77.109366-42.586195 0-77.110387 34.523171-77.110387 77.109366 0 35.452617 23.939112 65.298969 56.529933 74.306744l0 178.119076c-54.063992 9.708685-95.086146 56.980882-95.086146 113.836274 0 40.580387 20.902853 76.273783 52.525457 96.916472l-41.962824 115.13403 30.012652 1.441611 38.054251-103.887831c5.322637 1.798698 10.818716 3.218884 16.456609 4.230971l0 127.414762 38.977576 0L530.400693 896.950507c6.387776-1.021269 12.603131-2.559804 18.596071-4.581936l38.052211 103.874567 30.016733-1.441611-41.958743-115.113626C606.743853 859.047252 627.662009 823.344674 627.662009 782.751024zM512.003571 252.63191c26.616245 0 48.189401-21.574176 48.189401-48.190421s-21.574176-48.194502-48.189401-48.194502c-26.620326 0-48.194502 21.577237-48.194502 48.194502S485.383245 252.63191 512.003571 252.63191z" p-id="2187"></path></svg>